<?xml version="1.0" encoding="utf-8"?>
<!-- Generator: Adobe Illustrator 22.1.0, SVG Export Plug-In . SVG Version: 6.00 Build 0)  -->
<svg version="1.1" id="レイヤー_1" xmlns="http://www.w3.org/2000/svg" xmlns:xlink="http://www.w3.org/1999/xlink" x="0px"
	 y="0px" viewBox="0 0 595.3 841.9" style="enable-background:new 0 0 595.3 841.9;" xml:space="preserve">
<image style="overflow:visible;" width="240" height="240" xlink:href="iconmonstr-wifi-thin-240.png"  transform="matrix(0.8062 0 0 0.8062 88.5 324.8898)">
</image>
<g>
	<path d="M372.2,374.8v-37.9c0-2.6-2.1-4.7-4.7-4.7h-7.6c-2.6,0-4.7,2.1-4.7,4.7v37.9h-34.3v-37.9c0-2.6-2.1-4.7-4.7-4.7h-7.6
		c-2.6,0-4.7,2.1-4.7,4.7v37.9H284v16.1h108v-16.1H372.2z"/>
	<path d="M284,418.2c0,19.4,11.6,36.1,28.1,43.6v10.4c0,5,4.1,9.1,9.1,9.1h33.6c5,0,9.1-4.1,9.1-9.1v-10.4
		c16.6-7.5,28.1-24.2,28.1-43.6v-20H284V418.2z"/>
	<rect x="327.7" y="488" width="20.5" height="23.7"/>
</g>
</svg>
