<?xml version="1.0" encoding="utf-8"?>
<!-- Generator: Adobe Illustrator 22.1.0, SVG Export Plug-In . SVG Version: 6.00 Build 0)  -->
<svg version="1.1" id="レイヤー_1" xmlns="http://www.w3.org/2000/svg" xmlns:xlink="http://www.w3.org/1999/xlink" x="0px"
	 y="0px" viewBox="0 0 595.3 841.9" style="enable-background:new 0 0 595.3 841.9;" xml:space="preserve">
<style type="text/css">
	.st0{stroke:#FFFFFF;stroke-miterlimit:10;}
	.st1{fill:#FFFFFF;}
</style>
<ellipse transform="matrix(0.7071 -0.7071 0.7071 0.7071 -193.7713 326.6734)" class="st0" cx="297.4" cy="397.2" rx="104" ry="104"/>
<g>
	<g>
		<g>
			<g>
				<path class="st1" d="M391.4,396.3c-0.4,0-0.7,0.3-0.7,0.7c0,51.1-41.6,92.7-92.7,92.7c-51.1,0-92.7-41.6-92.7-92.7
					s41.6-92.7,92.7-92.7c45.9,0,86.2,34.8,91.7,79.2c0.2,2.9-0.7,5.6-2.4,7.4c-1.2,1.2-2.7,1.9-4.3,1.8c-3-0.2-5.2-1.9-7.5-3.8
					c-2.5-2-5.1-4-8.9-4c-4.2,0-7.1,3.4-10.2,6.4c-0.1,0.1-0.2,0.2-0.3,0.3c-1,0.9-2.9,2.6-4.1,3.5c-0.7,0.5-1.4,1-2.2,1.5
					c0,0,0,0,0,0c-0.3,0.2-0.6,0.4-0.8,0.6c-0.3,0.2-0.5,0.3-0.8,0.5v0c-0.3,0.2-0.5,0.3-0.8,0.5c-0.9,0.6-1.7,1.1-2.7,1.6
					c-0.5,0.3-0.9,0.5-1.4,0.8c0,0,0,0,0,0c-0.5,0.2-1,0.5-1.5,0.7c-0.2,0.1-0.5,0.2-0.7,0.3c-1.7,0.8-3.5,1.5-5.3,2
					c-2.1,0.6-4.1,1-6,1c-1.3,0-1.9-0.2-2.5-0.7l-0.1-0.1c-0.1-0.1-0.1-0.2-0.2-0.3h-1.7c0.2,0.5,0.6,1.1,1,1.5
					c0.9,0.9,1.8,1.3,3.5,1.3c2,0,4.1-0.3,6.2-1c2.1-0.6,4.2-1.5,6.2-2.4c1.5-0.7,2.8-1.5,4.2-2.3c0,0,0,0,0,0
					c0.5-0.3,1-0.6,1.5-0.9c0,0,0,0,0,0c0,0,0,0,0,0c0.3-0.2,0.5-0.3,0.8-0.5c0,0,0,0,0,0c0.3-0.2,0.5-0.4,0.8-0.5
					c0.2-0.1,0.4-0.3,0.6-0.4c0.9-0.6,1.7-1.2,2.5-1.8c1.4-1,2.4-2,3.2-2.6c0.6-0.5,1.6-1.5,2.2-2.1c2.8-2.7,5.3-5.5,8.6-5.5
					c3.3,0,5.5,1.8,7.9,3.7c2.4,1.9,4.8,3.8,8.3,4.1c1.9,0.1,3.9-0.7,5.4-2.2c2.1-2.1,3.1-5.2,2.9-8.6
					c-5.6-45.2-46.6-80.6-93.2-80.6c-51.9,0-94.2,42.3-94.2,94.2c0,51.9,42.3,94.2,94.2,94.2c51.9,0,94.2-42.3,94.2-94.2
					C392.1,396.6,391.8,396.3,391.4,396.3z"/>
			</g>
			<g>
				<path class="st1" d="M363.9,426.6l-11.2-29.5c-0.7,0.5-1.5,1-2.3,1.6c-0.2,0.1-0.4,0.3-0.6,0.4c-0.3,0.2-0.5,0.4-0.8,0.5
					l-0.8,0.5c-0.5,0.3-1,0.6-1.5,0.9c-1.2,0.7-2.5,1.4-3.8,2.1h7.2l9.2,24.3l0.3,0.8h0.9h2.2h1.9L363.9,426.6z"/>
				<path class="st1" d="M339.3,362l-0.3-0.8h-0.9H336h-0.9l-0.3,0.8l-25,64.6l-0.7,1.8h1.9h2.1h0.9l0.3-0.8l9.3-24.3h12.3
					c1.7-0.5,3.3-1.2,5-1.9l0.2-0.1c0.2-0.1,0.3-0.1,0.5-0.2c0.5-0.2,0.9-0.4,1.3-0.7l0.1-0.1c0.5-0.2,0.9-0.5,1.4-0.8
					c0.3-0.2,0.6-0.4,0.9-0.5h-7.8c-0.4,0.2-0.7,0.3-1.1,0.5c-1.7,0.7-3.3,1-5,1c-1.8,0-3-0.3-3.8-0.8c-0.4-0.3-0.7-0.5-1-0.8h-1.4
					c1.7-4.5,3.5-9,5-13.1c2.8-7.3,5.2-13.6,6.6-17.5c1.4,4,3.9,10.5,7.1,19.1c0,0,0.1,0,0.1,0.1c1,0.7,1.6,1.5,1.6,2.6
					c0,0.4-0.1,0.8-0.2,1.2c0.7,1.9,1.5,3.9,2.3,6l0.9-0.6c0.3-0.2,0.5-0.3,0.8-0.5v0l0,0c0.8-0.5,1.5-1,2.2-1.5c0,0,0.1,0,0.1-0.1
					L339.3,362z"/>
			</g>
			<g>
				<g>
					<g>
						<path class="st1" d="M303.8,409.9c-1.1,1.3-2.3,2.7-3.5,4.1c0,2.6,0,4.9,0.1,6.8c-0.5-0.8-1.2-1.7-2-2.9
							c-1.1-1.6-2.5-3.7-4.2-6.3c-0.9,1.4-1.7,2.8-2.4,4.1c-0.1,0.1-0.1,0.2-0.2,0.3c2.5,3.7,5.1,7.7,8,11.9l0.4,0.6h0.7h2.9h1.3
							v-1.3v-18.5C304.5,409,304.1,409.5,303.8,409.9z"/>
					</g>
					<g>
						<g>
							<path class="st1" d="M276.9,394c1.2-1,2.4-2,3.5-3c-5.2-7.7-11.6-17.2-19.7-29.3l-0.4-0.6h-0.7h-3h-1.3v1.3v64.6v1.3h1.3h2
								h1.3v-1.3V394c0-2.8,0-5.4,0-7.9c0-6.4,0-12.2-0.1-17.6C262.1,372,266.5,378.6,276.9,394z"/>
						</g>
						<g>
							<path class="st1" d="M282.7,394.5c-0.1,0.1-0.2,0.3-0.3,0.4c-0.8,1.3-1.3,2.5-1.6,3.6v0c-0.1,0.4-0.2,0.7-0.2,1
								c2.7,4.1,5.8,8.7,9.3,13.9c0.9-1.4,1.8-2.9,2.6-4.3C290.1,405.4,286.9,400.7,282.7,394.5z"/>
						</g>
						<g>
							<path class="st1" d="M278.8,396.8c0.2-0.6,0.5-1.3,0.8-1.9c-0.4,0.4-0.9,0.7-1.4,1.1C278.4,396.3,278.6,396.6,278.8,396.8z"
								/>
						</g>
					</g>
				</g>
				<g>
					<path class="st1" d="M304.8,404.5v-42.1v-1.3h-1.3h-2h-1.3v1.3v32.6c0,5.3,0,10.6,0,15.2C301.9,408.3,303.4,406.4,304.8,404.5z
						"/>
				</g>
			</g>
			<g>
				<g>
					<path class="st1" d="M242.3,401.7v-39.2v-1.3H241h-2h-1.3v1.3v39.9C239.2,402.3,240.7,402.1,242.3,401.7z"/>
				</g>
				<g>
					<path class="st1" d="M237.7,404.9v22.2v1.3h1.3h2h1.3v-1.3v-22.9C240.7,404.6,239.2,404.8,237.7,404.9z"/>
				</g>
			</g>
			<g>
				<path class="st1" d="M296.7,406.5c0.5-0.8,1-1.6,1.4-2.3c0.5-0.9,1.1-1.8,1.6-2.6c0-1,0-2,0-3.1c-1.4,2.1-2.7,4.3-4.1,6.5l0,0
					c-0.2,0.4-0.4,0.7-0.7,1.1c-0.6,1-1.3,2-1.9,3.1c0,0,0,0,0,0c-1,1.7-2.1,3.4-3.2,5.1c0,0,0,0,0,0c-0.1,0.2-0.2,0.3-0.3,0.5
					c-0.2,0.3-0.4,0.7-0.6,1c0,0,0,0.1-0.1,0.1l0,0c-0.3,0.5-0.6,1-0.9,1.5c0,0,0,0,0,0c-0.3,0.5-0.6,0.9-0.9,1.4
					c-1,1.7-1.9,3.2-2.8,4.6c-1.5,2.4-2.7,4.3-3.6,5.5c-0.2,0.2-0.2,0.3-0.1,0.4c0.1,0.2,0.2,0.3,0.3,0.4c0.1,0.1,0.2,0.2,0.3,0.2
					c0,0,0.1,0.1,0.3,0.1c0.1,0,0.1,0,0.2-0.1c0.1-0.1,0.2-0.1,0.2-0.2c1.7-1,3.4-2.3,5.2-3.7c1.8-1.5,3.7-3.1,5.6-4.9
					c0.3-0.3,0.7-0.7,1-1c-0.3-0.4-0.6-0.8-0.8-1.3c-2.3,2.3-4.7,4.4-7.1,6.3l-1.2,0.9l0.8-1.3c0.8-1.3,1.7-2.7,2.7-4.3
					c0.1-0.1,0.2-0.3,0.2-0.4l0,0c0,0,0.1-0.1,0.1-0.1c0.2-0.4,0.4-0.7,0.7-1.1c0.1-0.2,0.3-0.4,0.4-0.6c0.1-0.1,0.1-0.2,0.2-0.4
					l0,0c0.1-0.2,0.3-0.4,0.4-0.6c0,0,0,0,0-0.1l0,0c0,0,0,0,0,0c0,0,0-0.1,0.1-0.1c0.3-0.6,0.7-1.1,1-1.7c0.9-1.5,1.8-3.1,2.8-4.7
					c0,0,0.1-0.1,0.1-0.1c0.3-0.5,0.6-1,0.9-1.5C295.7,408.2,296.2,407.4,296.7,406.5z"/>
				<path class="st1" d="M250.2,385.9c0.6,0,1,0,1.3,0.1c0.3,0.1,0.4,0.1,0.5,0.2l0.2,0.1v0.2c0,0,0,0.2,0,0.5
					c0,0.3-0.2,0.7-0.7,1.3c-0.4,0.6-1.1,1.3-2,2.2c-0.9,0.9-2.3,2-4,3.4c-0.4,0.6-0.2,0.9-0.1,1.1c0.2,0.1,0.4,0.2,0.6,0.2
					c0.3,0,0.5-0.1,0.6-0.1c2.9-2.3,5-4.2,6.1-5.7c1.1-1.4,1.5-2.5,1.1-3.4c-0.1-0.4-0.5-0.7-1-1c-0.5-0.3-1.4-0.5-2.7-0.5
					c-2,0-4.2,0.6-6.5,1.7c-0.3,0.2-0.7,0.4-1,0.5v1.7c0.5-0.3,1-0.6,1.5-0.8C246.3,386.4,248.3,385.9,250.2,385.9z"/>
				<path class="st1" d="M247,400.7c-0.5,0.2-1.1,0.4-1.6,0.6c0,0,0,0,0,0c-0.5,0.2-1.1,0.3-1.6,0.5c-0.3,0.1-0.5,0.2-0.8,0.2
					c-0.1,0-0.1,0-0.2,0.1c-1.9,0.5-3.8,0.8-5.7,0.9v0c-0.2,0-0.5,0-0.7,0c-0.1,0-0.3,0-0.4,0c-0.1,0-0.2,0-0.3,0
					c-0.5,0-0.9-0.1-1.2-0.2c0,0,0,0,0,0c-0.2-0.1-0.3-0.1-0.4-0.2c0,0,0,0,0,0c-0.1-0.1-0.2-0.1-0.3-0.2c-0.6-0.4-0.9-0.9-0.9-1.7
					c0-1.2,0.6-2.7,1.7-4.4c0.8-1.2,1.8-2.4,2.9-3.5v-2.1c-1.8,1.6-3.3,3.3-4.4,5.1c-1.2,1.8-1.8,3.5-1.8,5c0,0.6,0.1,1.1,0.3,1.6
					c0.2,0.5,0.5,0.9,1,1.2c0.4,0.4,1,0.6,1.6,0.8c0.2,0.1,0.4,0.1,0.6,0.2c0.1,0,0.1,0,0.2,0c0.5,0.1,1,0.2,1.6,0.2
					c0.2,0,0.5,0,0.7,0l0,0c0.1,0,0.1,0,0.2,0c1.9-0.1,3.9-0.4,5.9-0.9c0.7-0.2,1.5-0.4,2.2-0.6c0,0,0,0,0,0
					c0.5-0.2,1.1-0.3,1.6-0.5c0,0,0,0,0,0v0c1-0.4,2-0.7,3-1.1c1.7-0.7,3.3-1.5,4.8-2.3v-1.8c-1.7,0.9-3.5,1.8-5.3,2.5
					C248.7,400,247.9,400.4,247,400.7z"/>
				<path class="st1" d="M288.4,402.1c1.1-0.4,2.3-1,3.6-1.6c2.3-1.2,4.9-2.7,7.8-4.7c0-0.3,0-0.5,0-0.8v-1
					c-1.3,0.8-2.4,1.6-3.5,2.2c-2.5,1.5-4.6,2.6-6.4,3.5c-0.9,0.4-1.7,0.8-2.4,1C287.8,401.3,288.1,401.7,288.4,402.1z"/>
				<path class="st1" d="M282.7,403.5c-0.4-0.5-0.7-1.1-1.1-1.6c-0.3-0.1-0.5-0.1-0.7-0.3l-0.4-0.4c0,0-0.1-0.1-0.1-0.1l0,0
					c0,0,0,0,0,0c0,0,0-0.1,0-0.1l0,0c-0.1-0.3-0.2-0.6-0.2-1c0-0.1,0-0.2,0-0.3c0-0.4,0.1-0.8,0.3-1.3c0.3-1.1,0.9-2.3,1.7-3.7
					c0.2-0.4,0.5-0.8,0.7-1.2c0.1-0.2,0.3-0.4,0.4-0.7c0.1-0.2,0.3-0.4,0.4-0.6c0.3-0.5,0.7-1,1.1-1.6c0.2-0.3,0.5-0.7,0.7-1h0
					c0.7-1,1.5-1.9,2.2-2.7c0.2-0.2,0.2-0.4,0.2-0.5c0-0.2-0.2-0.3-0.4-0.5c-0.1-0.1-0.3-0.2-0.5-0.2c-0.2,0-0.5,0.1-0.7,0.3
					c-0.5,0.6-1.1,1.2-1.9,1.9l-0.2,0.2l-0.2-0.2c-0.2-0.3-0.7-0.7-1.5-1.1c-0.7-0.4-1.7-0.7-3-0.9c-0.6-0.1-1.3-0.2-2-0.2
					c0,0,0,0,0,0c0.3,0.5,0.7,1,1,1.5l0.6,0c1.3,0.2,2.2,0.5,2.8,1c0.3,0.2,0.5,0.4,0.6,0.5h0c0.2,0.2,0.3,0.3,0.3,0.4c0,0,0,0,0,0
					c0,0,0,0.1,0,0.1v0.1l-0.1,0.1c-0.5,0.5-1.1,1-1.6,1.5c-1.3,1.1-2.6,2.3-4,3.4c-0.1,0.1-0.2,0.2-0.3,0.3c0,0,0,0,0,0
					c-1.9,1.5-3.7,2.9-5.5,4.1c-1.9,1.3-3.7,2.3-5.3,2.9c-1.2,0.5-2.2,0.7-3,0.7h0c-0.4,0-0.7,0-1-0.1c-0.3-0.1-0.6-0.3-0.8-0.5
					c-0.2-0.2-0.4-0.5-0.4-1c-0.2-1.2,0.3-2.8,1.3-4.5c1-1.8,2.8-3.5,5.2-5.1c1.8-1.3,3.6-2.2,5.3-2.8c-0.3-0.4-0.6-0.9-0.9-1.3
					c-1.8,0.7-3.7,1.7-5.6,3c-0.1,0.1-0.2,0.2-0.4,0.3c-0.1,0-0.2,0.1-0.3,0.2c-1.7,1.2-3.3,2.3-4.7,3.2c-0.1,0.1-0.2,0.2-0.4,0.2
					v1.9c0.1,0,0.1-0.1,0.2-0.1c0,0.1-0.1,0.1-0.1,0.2c0,0,0,0,0,0v7.1c0.3,0.3,0.7,0.5,1.2,0.6c0.2,0.1,0.4,0.1,0.6,0.1h0.7
					c1.1,0,2.4-0.3,3.8-0.9c1.4-0.6,2.9-1.3,4.4-2.3c1.5-0.9,3-2,4.6-3.1c0.6-0.5,1.2-1,1.9-1.4l0,0c0,0,0.1,0,0.1-0.1
					c0,0,0,0,0.1-0.1c0,0,0,0,0,0c0,0,0,0,0,0l0,0c0.8-0.6,1.6-1.3,2.3-1.9l1.1-0.9l-0.7,1.3c-0.6,1.2-1.1,2.3-1.5,3.5c0,0,0,0,0,0
					c0,0.1-0.1,0.2-0.1,0.3l0,0c0,0.2-0.1,0.3-0.1,0.5c-0.2,0.6-0.2,1.2-0.2,1.7c0,0,0,0,0,0c0,0,0,0,0,0.1l0,0c0,0.3,0,0.5,0.1,0.7
					c0,0,0,0,0,0c0,0,0,0,0,0c0,0,0,0,0,0c0,0.1,0.1,0.2,0.1,0.3c0,0,0,0,0,0c0,0.1,0.1,0.2,0.1,0.3c0,0,0,0,0,0l0,0
					c0,0,0,0.1,0.1,0.1c0,0,0,0,0,0c0.1,0.1,0.2,0.2,0.3,0.3c0,0,0,0,0,0c0.2,0.3,0.5,0.5,0.9,0.8c0.5,0.4,1.4,0.6,2.5,0.6
					C282.6,403.5,282.6,403.5,282.7,403.5z"/>
				<path class="st1" d="M331.4,369.6c-1.2,1.4-2.8,2.9-4.8,4.7c-2.2,1.9-4.8,4-7.7,6.3c-3,2.3-6,4.5-9.1,6.7l-1.2,0.9l0.9-1.2
					c2-2.9,4.1-5.7,6.1-8.3c2-2.6,4-4.9,5.8-6.8c1.9-1.9,3.6-3.5,5.3-4.7c1.7-1.2,3.2-1.8,4.6-1.8c0.8,0,1.3,0.1,1.6,0.3l0.6-1.4
					c-0.6-0.2-1.3-0.3-2.2-0.3c-2.4,0-5.2,1.4-8.3,4.1c-3.1,2.8-6.5,6.5-10,11.2c-2.5,3.2-5,6.9-7.7,10.8v0.3v1.8v1.1
					c0.3-0.5,0.6-0.9,1-1.4l0,0l0.2-0.2c1.2-0.8,2.8-1.9,4.8-3.3c2-1.4,4.1-2.9,6.2-4.5c2.2-1.6,4.4-3.4,6.6-5.2
					c2.2-1.8,4.2-3.5,5.9-5.2L331.4,369.6z"/>
				<path class="st1" d="M314.7,397.8c-0.4,0-0.8,0-1.2-0.1c-0.5,0-0.9-0.2-1.4-0.4l-0.2-0.1l0.1-0.2c0.5-0.9,0.8-1.8,1-2.5
					c0.2-0.7,0.2-1.2-0.1-1.6c-0.3-0.8-1-1.2-2-1.2c-0.7,0-1.3,0.3-1.7,1c-0.5,0.7-0.7,1.5-0.7,2.3c0,1,0.4,1.9,1.1,2.7l0.1,0.1
					l-0.1,0.2c-0.7,1.3-1.7,2.8-2.8,4.5h0c-0.3,0.5-0.7,1-1.1,1.5c0,0,0,0,0,0.1c-0.2,0.2-0.3,0.5-0.5,0.7v0
					c-1.5,2.1-3.3,4.3-5.2,6.5c-0.1,0.1-0.2,0.2-0.3,0.3c-0.1,0.1-0.3,0.3-0.4,0.4c-0.6,0.7-1.2,1.3-1.8,2c-0.3,0.3-0.5,0.6-0.8,0.9
					c0.3,0.5,0.6,0.9,0.9,1.3c0.2-0.2,0.4-0.4,0.6-0.6c0.3-0.4,0.7-0.7,1-1.1l0,0c0,0,0,0,0,0c0.1-0.1,0.1-0.1,0.2-0.2v0
					c0.1-0.1,0.2-0.2,0.3-0.4c0,0,0,0,0,0c1.3-1.4,2.5-2.8,3.6-4.2c0.6-0.8,1.2-1.5,1.8-2.3v0c0.1-0.1,0.1-0.2,0.2-0.3
					c0.1-0.1,0.2-0.3,0.3-0.4v0c0.1-0.1,0.1-0.1,0.2-0.2c0,0,0,0,0,0v0c0.6-0.8,1.3-1.7,1.8-2.5c0,0,0-0.1,0.1-0.1
					c0.3-0.5,0.7-1,1-1.4c0,0,0,0,0,0h0c0.8-1.3,1.6-2.4,2.2-3.5l0.1-0.2l0.2,0.1c0.9,0.3,2,0.5,3.3,0.5c1.9,0,3.7-0.3,5.6-1
					l0.7-1.8c-0.2,0.1-0.4,0.2-0.7,0.3C318.4,397.5,316.5,397.8,314.7,397.8z M310.9,395.6l-0.3,0.6l-0.1-0.7
					c-0.1-0.5-0.1-1.1,0.1-1.5c0.2-0.7,0.3-0.8,0.4-0.8l0.2-0.2l0.2,0.2C311.7,393.6,311.5,394.4,310.9,395.6z"/>
				<path class="st1" d="M343.9,387.9c-0.3-0.2-0.8-0.4-1.4-0.5c-0.6-0.1-1.4-0.2-2.2-0.2c-2,0-4.2,0.5-6.3,1.6
					c-2.1,1.1-4.1,2.4-5.9,4l-1.9,4.8l0.1,0.1c0.1,0.1,0.1,0.2,0.2,0.3c0.2,0.4,0.7,0.9,1.4,1.4c0.7,0.5,1.9,0.7,3.6,0.7
					c1.6,0,3.2-0.3,4.8-1c1.6-0.7,3.1-1.5,4.5-2.5c1.3-1,2.4-2.1,3.3-3.2c0.8-1.1,1.2-2.2,1.2-3.1
					C345.3,389.3,344.8,388.5,343.9,387.9z M342.5,392.8c-0.7,0.9-1.7,1.9-2.8,2.7c-1.1,0.8-2.4,1.6-3.9,2.2
					c-1.4,0.6-2.9,0.9-4.3,0.9c-0.5,0-1.1,0-1.8-0.1c-0.8-0.1-1.3-0.4-1.6-0.9c-0.2-0.6-0.2-1.2,0.2-2c0.3-0.7,0.7-1.3,1.2-1.8
					c0,0,0.1-0.1,0.1-0.1l0.1-0.2c1.5-1.4,3.1-2.4,4.9-3.4c1.8-0.9,3.7-1.4,5.6-1.4c0.7,0,1.3,0,1.8,0.1c0.4,0.1,0.7,0.2,0.9,0.3
					c0.4,0.3,0.7,0.6,0.7,1C343.6,390.9,343.2,391.8,342.5,392.8z"/>
			</g>
			<path class="st1" d="M298,501.1c-57.3,0-104-46.6-104-104s46.6-104,104-104s104,46.6,104,104S355.3,501.1,298,501.1z M298,294.8
				c-56.4,0-102.3,45.9-102.3,102.3c0,56.4,45.9,102.3,102.3,102.3c56.4,0,102.3-45.9,102.3-102.3
				C400.3,340.7,354.4,294.8,298,294.8z"/>
		</g>
	</g>
	<g>
		<path class="st1" d="M245.3,443h1l1.1,3.2l1.1-3.2h0.7l1.1,3.2l1.1-3.2h1l-1.7,5.2H250l-1.2-3.3l-1.1,3.3H247L245.3,443z"/>
		<path class="st1" d="M258.7,445.8h-2.6v2.3h-1V443h1v2h2.6v-2h1v5.2h-1V445.8z"/>
		<path class="st1" d="M263.9,443.9v1.1h1.6v0.9h-1.6v1.4h2.2v0.9h-3.2V443h3.1v0.9H263.9z"/>
		<path class="st1" d="M270.1,445.8v2.3h-1V443h1.9c0.5,0,0.9,0.1,1.1,0.4c0.3,0.3,0.5,0.6,0.5,1.1c0,0.4-0.2,0.8-0.5,1.1
			c-0.1,0.1-0.3,0.2-0.5,0.3l1.9,2.4h-1.2l-1.8-2.3H270.1z M270.9,445c0.3,0,0.4-0.1,0.5-0.2c0.1-0.1,0.1-0.2,0.1-0.4
			c0-0.2-0.1-0.3-0.1-0.4c-0.1-0.1-0.2-0.2-0.5-0.2h-0.8v1.1H270.9z"/>
		<path class="st1" d="M277.1,443.9v1.1h1.6v0.9h-1.6v1.4h2.2v0.9h-3.2V443h3.1v0.9H277.1z"/>
		<path class="st1" d="M287.2,446v2.1h-1V443h1.9c0.7,0,1.1,0.2,1.3,0.5c0.3,0.3,0.4,0.7,0.4,1.1c0,0.4-0.1,0.8-0.4,1.1
			c-0.3,0.3-0.7,0.5-1.3,0.5H287.2z M288.2,445.1c0.3,0,0.5-0.1,0.6-0.2c0.1-0.1,0.2-0.3,0.2-0.4c0-0.2-0.1-0.3-0.2-0.4
			c-0.1-0.1-0.3-0.2-0.6-0.2h-0.9v1.3H288.2z"/>
		<path class="st1" d="M293.7,443.9v1.1h1.6v0.9h-1.6v1.4h2.2v0.9h-3.2V443h3.1v0.9H293.7z"/>
		<path class="st1" d="M301.2,442.9c1.6,0,2.7,1.2,2.7,2.7c0,1.5-1.1,2.7-2.7,2.7c-1.6,0-2.7-1.2-2.7-2.7
			C298.5,444.1,299.6,442.9,301.2,442.9z M301.2,447.3c1,0,1.7-0.8,1.7-1.8s-0.7-1.8-1.7-1.8c-1,0-1.7,0.8-1.7,1.8
			S300.2,447.3,301.2,447.3z"/>
		<path class="st1" d="M307.8,446v2.1h-1V443h1.9c0.7,0,1.1,0.2,1.3,0.5c0.3,0.3,0.4,0.7,0.4,1.1c0,0.4-0.1,0.8-0.4,1.1
			c-0.3,0.3-0.7,0.5-1.3,0.5H307.8z M308.7,445.1c0.3,0,0.5-0.1,0.6-0.2c0.1-0.1,0.2-0.3,0.2-0.4c0-0.2-0.1-0.3-0.2-0.4
			c-0.1-0.1-0.3-0.2-0.6-0.2h-0.9v1.3H308.7z"/>
		<path class="st1" d="M313.3,443h1v4.3h2.2v0.9h-3.2V443z"/>
		<path class="st1" d="M320.3,443.9v1.1h1.6v0.9h-1.6v1.4h2.2v0.9h-3.2V443h3.1v0.9H320.3z"/>
		<path class="st1" d="M332.1,446.1l1.9-3.1h0.7v5.2h-1v-2.9l-1.2,2h-0.7l-1.2-2v2.9h-1V443h0.7L332.1,446.1z"/>
		<path class="st1" d="M338.9,443.9v1.1h1.6v0.9h-1.6v1.4h2.2v0.9h-3.2V443h3.1v0.9H338.9z"/>
		<path class="st1" d="M345,443.9v1.1h1.6v0.9H345v1.4h2.2v0.9H344V443h3.1v0.9H345z"/>
		<path class="st1" d="M353.5,443v0.9h-1.4v4.3h-1v-4.3h-1.4V443H353.5z"/>
		<path class="st1" d="M255.9,458.5l2.2-5.2h0.7l2.2,5.2h-1l-0.5-1.1h-2.1l-0.5,1.1H255.9z M257.8,456.4h1.3l-0.7-1.5L257.8,456.4z"
			/>
		<path class="st1" d="M263.6,453.3h0.7l2.9,3.4v-3.4h1v5.2h-0.7l-2.9-3.4v3.4h-1V453.3z"/>
		<path class="st1" d="M273.1,453.3c0.8,0,1.4,0.2,1.8,0.5c0.6,0.5,1,1.2,1,2.1c0,0.9-0.4,1.6-1,2.1c-0.4,0.3-1,0.5-1.8,0.5h-1.6
			v-5.2H273.1z M274.5,454.8c-0.3-0.4-0.7-0.6-1.3-0.6h-0.7v3.4h0.7c0.6,0,1-0.2,1.3-0.6c0.2-0.3,0.4-0.7,0.4-1.1
			C274.9,455.4,274.8,455,274.5,454.8z"/>
		<path class="st1" d="M283,457.1c0.3,0.3,0.7,0.6,1.2,0.6c0.4,0,0.8-0.3,0.8-0.6c0-0.7-1-0.7-1.7-1.2c-0.4-0.2-0.7-0.6-0.7-1.2
			c0-0.9,0.8-1.5,1.7-1.5c0.5,0,1,0.1,1.5,0.5l-0.5,0.7c-0.2-0.2-0.6-0.3-0.9-0.3c-0.4,0-0.8,0.2-0.8,0.6c0,0.8,2.4,0.6,2.4,2.3
			c0,0.9-0.8,1.6-1.7,1.6c-0.7,0-1.3-0.3-1.9-0.8L283,457.1z"/>
		<path class="st1" d="M289.8,456.4v2.1h-1v-5.2h1.9c0.7,0,1.1,0.2,1.3,0.5c0.3,0.3,0.4,0.7,0.4,1.1s-0.1,0.8-0.4,1.1
			c-0.3,0.3-0.7,0.5-1.3,0.5H289.8z M290.7,455.5c0.3,0,0.5-0.1,0.6-0.2c0.1-0.1,0.2-0.3,0.2-0.4s-0.1-0.3-0.2-0.4
			c-0.1-0.1-0.3-0.2-0.6-0.2h-0.9v1.3H290.7z"/>
		<path class="st1" d="M296.3,454.2v1.1h1.6v0.9h-1.6v1.4h2.2v0.9h-3.2v-5.2h3.1v0.9H296.3z"/>
		<path class="st1" d="M301.5,453.3h0.7l2.9,3.4v-3.4h1v5.2h-0.7l-2.9-3.4v3.4h-1V453.3z"/>
		<path class="st1" d="M310.9,453.3c0.8,0,1.4,0.2,1.8,0.5c0.6,0.5,1,1.2,1,2.1c0,0.9-0.4,1.6-1,2.1c-0.4,0.3-1,0.5-1.8,0.5h-1.6
			v-5.2H310.9z M312.4,454.8c-0.3-0.4-0.7-0.6-1.3-0.6h-0.7v3.4h0.7c0.6,0,1-0.2,1.3-0.6c0.2-0.3,0.4-0.7,0.4-1.1
			C312.7,455.4,312.6,455,312.4,454.8z"/>
		<path class="st1" d="M324,453.3v0.9h-1.4v4.3h-1v-4.3h-1.4v-0.9H324z"/>
		<path class="st1" d="M326.8,453.3h1v5.2h-1V453.3z"/>
		<path class="st1" d="M333.7,456.4l1.9-3.1h0.7v5.2h-1v-2.9l-1.2,2h-0.7l-1.2-2v2.9h-1v-5.2h0.7L333.7,456.4z"/>
		<path class="st1" d="M340.5,454.2v1.1h1.6v0.9h-1.6v1.4h2.2v0.9h-3.2v-5.2h3.1v0.9H340.5z"/>
	</g>
</g>
</svg>
