<?xml version="1.0" encoding="utf-8"?>
<!-- Generator: Adobe Illustrator 22.1.0, SVG Export Plug-In . SVG Version: 6.00 Build 0)  -->
<svg version="1.1" id="レイヤー_1" xmlns="http://www.w3.org/2000/svg" xmlns:xlink="http://www.w3.org/1999/xlink" x="0px"
	 y="0px" viewBox="0 0 595.3 841.9" style="enable-background:new 0 0 595.3 841.9;" xml:space="preserve">
<style type="text/css">
	.st0{fill:#F08300;}
</style>
<g>
	<g>
		<g>
			<g>
				<path d="M153.8,638.5h4.3v30.4h-4.3V638.5z"/>
				<path d="M189.4,646.6v22.3h-4.3v-30.4h3l18.2,22.3v-22.3h4.3v30.4h-3L189.4,646.6z"/>
				<path d="M256.2,661.1h-12.8l-3.2,7.8h-4.5l12.6-30.4h3l12.6,30.4h-4.5L256.2,661.1z M245.1,657h9.4l-4.7-11.3L245.1,657z"/>
				<path d="M299.2,638.1c4.3,0,8.5,1.8,11.1,4.7l-2.9,2.9c-1.8-2-5-3.4-8.2-3.4c-6.2,0-11,4.9-11,11.5c0,6.9,5,11.5,11.4,11.5
					c4.1,0,7-2.3,8.7-4.3l3.1,2.8c-2.6,3.3-7.1,5.6-11.8,5.6c-9.1,0-15.8-6.6-15.8-15.6C283.9,644.9,290.5,638.1,299.2,638.1z"/>
				<path d="M351.3,661.1h-12.8l-3.2,7.8h-4.5l12.6-30.4h3l12.6,30.4h-4.5L351.3,661.1z M340.2,657h9.4l-4.7-11.3L340.2,657z"/>
				<path d="M397.4,650.4v4.1h-10v14.3h-4.3v-30.4h17.4v4.1h-13v7.8H397.4z"/>
				<path d="M439.5,650.4v4.1h-10v10.2H443v4.1h-17.8v-30.4h17.4v4.1h-13v7.8H439.5z"/>
			</g>
		</g>
		<g>
			<g>
				<path class="st0" d="M480.2,373.4c-0.8,0-1.5,0.7-1.5,1.5c0,99.6-81,180.6-180.6,180.6c-99.6,0-180.6-81-180.6-180.6
					s81-180.6,180.6-180.6c89.4,0,167.9,67.8,178.7,154.4c0.4,5.7-1.3,11-4.7,14.4c-2.4,2.4-5.3,3.7-8.3,3.5
					c-5.9-0.4-10.1-3.7-14.6-7.3c-4.9-3.9-9.9-7.9-17.3-7.9c-8.1,0-13.8,6.6-19.9,12.5c-0.2,0.2-0.4,0.4-0.7,0.7
					c-2,1.8-5.7,5.1-8,6.8c-1.3,0.9-2.7,1.9-4.3,3c0,0,0,0,0,0c-0.5,0.4-1.1,0.7-1.7,1.1c-0.5,0.3-1,0.7-1.5,1v0
					c-0.5,0.3-1,0.7-1.5,1c-1.7,1.1-3.4,2.1-5.2,3.1c-0.9,0.5-1.8,1-2.8,1.5c0,0,0,0,0,0c-0.9,0.5-1.9,1-2.8,1.4
					c-0.5,0.2-0.9,0.4-1.4,0.6c-3.3,1.5-6.8,2.9-10.3,4c-4,1.3-8,1.9-11.7,1.9c-2.5,0-3.8-0.4-5-1.3l-0.1-0.1
					c-0.2-0.2-0.3-0.5-0.4-0.6h-3.4c0.4,1,1.2,2.1,2,2.9c1.7,1.7,3.6,2.5,6.8,2.5c3.9,0,8-0.6,12-1.9c4.1-1.3,8.2-2.8,12-4.7
					c2.8-1.4,5.5-2.8,8.1-4.4c0,0,0.1,0,0.1-0.1c1-0.6,1.9-1.2,2.8-1.8c0,0,0,0,0,0c0,0,0,0,0,0c0.5-0.3,1-0.7,1.5-1c0,0,0,0,0,0
					c0.5-0.4,1.1-0.7,1.6-1.1c0.4-0.3,0.8-0.6,1.3-0.9c1.7-1.2,3.4-2.3,4.8-3.4c2.7-2,4.7-3.8,6.2-5.1c1.1-0.9,3.2-2.9,4.2-4.1
					c5.4-5.3,10.3-10.7,16.8-10.7c6.3,0,10.8,3.5,15.4,7.2c4.6,3.7,9.4,7.5,16.2,7.9c3.8,0.3,7.6-1.3,10.6-4.3c4-4,6-10.1,5.6-16.7
					c-10.9-88-90.7-157-181.6-157c-101.2,0-183.5,82.3-183.5,183.5c0,101.2,82.3,183.5,183.5,183.5c101.2,0,183.5-82.3,183.5-183.5
					C481.6,374,481,373.4,480.2,373.4z"/>
			</g>
			<g>
				<path d="M426.6,432.5L404.8,375c-1.3,1-2.8,2-4.5,3.2c-0.4,0.3-0.8,0.6-1.3,0.9c-0.5,0.3-1,0.7-1.6,1.1l-1.5,1
					c-1,0.6-1.9,1.2-2.9,1.8c-2.4,1.5-4.9,2.8-7.4,4h14l18,47.4l0.6,1.7h1.8h4.2h3.7L426.6,432.5z"/>
				<path d="M378.8,306.7l-0.6-1.6h-1.8h-4h-1.8l-0.6,1.6l-48.8,125.9l-1.3,3.5h3.7h4h1.8l0.6-1.6l18.2-47.4h24
					c3.2-1,6.5-2.3,9.7-3.8l0.5-0.2c0.3-0.1,0.6-0.3,0.9-0.4c0.9-0.4,1.8-0.9,2.6-1.3l0.2-0.1c0.9-0.5,1.8-1,2.7-1.5
					c0.6-0.3,1.2-0.7,1.8-1.1h-15.3c-0.7,0.3-1.4,0.7-2.2,1c-3.2,1.3-6.5,2-9.7,2c-3.4,0-5.9-0.5-7.5-1.5c-0.7-0.5-1.4-1-1.9-1.5
					h-2.7c3.4-8.8,6.8-17.6,9.8-25.5c5.5-14.3,10.2-26.4,12.9-34c2.8,7.8,7.5,20.5,13.8,37.2c0.1,0,0.1,0.1,0.2,0.1c2,1.3,3,3,3,5.1
					c0,0.8-0.1,1.5-0.4,2.4c1.4,3.8,2.9,7.7,4.5,11.8l1.7-1.1c0.5-0.3,1-0.7,1.5-1v0l0,0c1.5-1,2.9-2,4.2-3c0.1,0,0.1-0.1,0.2-0.1
					L378.8,306.7z"/>
			</g>
			<g>
				<g>
					<g>
						<path d="M309.6,400c-2.1,2.6-4.4,5.2-6.8,7.9c0,5.1,0.1,9.6,0.2,13.2c-1-1.5-2.3-3.4-3.8-5.7c-2.1-3.2-4.8-7.1-8.2-12.3
							c-1.7,2.7-3.3,5.4-4.8,7.9c-0.1,0.2-0.2,0.4-0.3,0.6c4.8,7.2,10,14.9,15.6,23.3l0.8,1.1h1.4h5.6h2.6v-2.6v-36
							C310.9,398.3,310.3,399.1,309.6,400z"/>
					</g>
					<g>
						<g>
							<path d="M257.2,369c2.3-1.9,4.6-3.9,6.8-5.8c-10.1-14.9-22.6-33.6-38.4-57l-0.8-1.1h-1.4h-5.8h-2.6v2.6v125.9v2.6h2.6h3.8
								h2.6v-2.6v-64.6c0-5.4,0-10.5,0-15.5c0.1-12.6,0.1-23.8-0.2-34.2C228.5,326.1,237,338.9,257.2,369z"/>
						</g>
						<g>
							<path d="M268.6,370.1c-0.2,0.3-0.4,0.6-0.5,0.9c-1.5,2.5-2.5,4.9-3.2,7v0c-0.2,0.7-0.4,1.4-0.4,2c5.3,8,11.3,16.9,18.1,27
								c1.7-2.8,3.4-5.6,5.2-8.4C282.9,391.3,276.6,382,268.6,370.1z"/>
						</g>
						<g>
							<path d="M260.9,374.5c0.5-1.2,1-2.5,1.6-3.7c-0.8,0.7-1.7,1.4-2.6,2.2C260.2,373.5,260.5,374,260.9,374.5z"/>
						</g>
					</g>
				</g>
				<g>
					<path d="M311.6,389.5v-81.9V305h-2.6h-3.8h-2.6v2.6v63.5c0,10.3,0,20.6,0,29.7C306,396.9,308.9,393.1,311.6,389.5z"/>
				</g>
			</g>
			<g>
				<g>
					<path d="M189.8,383.9v-76.3V305h-2.6h-3.8h-2.6v2.6v77.8C183.8,385.2,186.8,384.7,189.8,383.9z"/>
				</g>
				<g>
					<path d="M180.9,390.2v43.3v2.6h2.6h3.8h2.6v-2.6v-44.5C186.8,389.6,183.8,390,180.9,390.2z"/>
				</g>
			</g>
			<g>
				<path class="st0" d="M295.8,393.4c0.9-1.5,1.9-3,2.8-4.6c1.1-1.7,2.1-3.4,3.2-5.1c0-2,0-4,0-5.9c-2.7,4.2-5.3,8.4-8,12.7l0,0
					c-0.4,0.7-0.9,1.4-1.3,2.1c-1.2,2-2.5,4-3.7,6c0,0,0,0,0,0c-2,3.3-4.1,6.6-6.1,10c0,0,0,0,0,0c-0.2,0.3-0.4,0.6-0.5,0.9
					c-0.4,0.7-0.8,1.3-1.2,2c0,0.1-0.1,0.1-0.1,0.2l0,0c-0.6,1-1.2,2-1.8,2.9c0,0,0,0,0,0c-0.6,0.9-1.1,1.8-1.7,2.7
					c-2,3.2-3.8,6.2-5.4,8.9c-2.9,4.8-5.3,8.3-7,10.7c-0.4,0.4-0.3,0.7-0.3,0.8c0.1,0.4,0.3,0.6,0.5,0.8c0.2,0.2,0.4,0.3,0.6,0.4
					c0.1,0,0.2,0.1,0.6,0.1c0.1,0,0.2,0,0.3-0.1c0.2-0.1,0.3-0.2,0.5-0.3c3.2-1.9,6.7-4.4,10.2-7.3c3.5-2.9,7.2-6.1,10.9-9.6
					c0.7-0.6,1.3-1.3,2-1.9c-0.5-0.8-1.1-1.6-1.6-2.4c-4.5,4.5-9.2,8.7-13.8,12.3l-2.3,1.8l1.5-2.5c1.5-2.5,3.3-5.3,5.2-8.3
					c0.1-0.2,0.3-0.5,0.5-0.7l0,0c0.1-0.1,0.1-0.2,0.2-0.3c0.4-0.7,0.9-1.4,1.3-2.1c0.3-0.4,0.5-0.8,0.8-1.3
					c0.1-0.2,0.3-0.5,0.4-0.7l0,0c0.2-0.4,0.5-0.8,0.7-1.2c0,0,0-0.1,0.1-0.1l0,0c0,0,0,0,0-0.1c0-0.1,0.1-0.1,0.1-0.2
					c0.7-1.1,1.3-2.2,2-3.4c1.7-2.9,3.6-5.9,5.5-9.1c0.1-0.1,0.1-0.2,0.2-0.3c0.6-1,1.2-2,1.8-3C293.8,396.7,294.8,395,295.8,393.4z
					"/>
				<path class="st0" d="M205.2,353.2c1.2,0,2,0.1,2.5,0.2c0.5,0.1,0.8,0.3,1.1,0.4l0.3,0.1v0.3c0,0.1,0,0.4-0.1,0.9
					c-0.1,0.6-0.5,1.4-1.3,2.6c-0.8,1.1-2.1,2.5-3.9,4.3c-1.8,1.7-4.4,3.9-7.9,6.6c-0.8,1.1-0.5,1.8-0.2,2.2
					c0.3,0.3,0.7,0.4,1.2,0.4c0.5,0,0.9-0.1,1.2-0.3c5.7-4.5,9.7-8.2,11.9-11c2.2-2.7,2.9-4.9,2.1-6.6c-0.3-0.7-0.9-1.3-1.9-1.9
					c-1-0.6-2.7-0.9-5.2-0.9c-4,0-8.2,1.1-12.6,3.3c-0.7,0.3-1.3,0.7-2,1.1v3.2c0.9-0.6,1.9-1.1,2.9-1.6
					C197.5,354.2,201.5,353.2,205.2,353.2z"/>
				<path class="st0" d="M199.1,382c-1,0.4-2.1,0.7-3.2,1.1c0,0,0,0,0,0c-1.1,0.3-2.1,0.7-3.2,1c-0.5,0.2-1.1,0.3-1.6,0.5
					c-0.1,0-0.3,0.1-0.4,0.1c-3.8,1-7.5,1.6-11.1,1.7v0c-0.5,0-0.9,0.1-1.4,0.1c-0.3,0-0.6,0-0.8,0c-0.2,0-0.5,0-0.7,0
					c-0.9-0.1-1.7-0.2-2.4-0.4c0,0,0,0-0.1,0c-0.3-0.1-0.6-0.2-0.8-0.3c0,0-0.1,0-0.1,0c-0.2-0.1-0.4-0.3-0.6-0.4
					c-1.1-0.7-1.7-1.8-1.7-3.3c0-2.4,1.1-5.3,3.2-8.5c1.5-2.4,3.4-4.7,5.7-6.9v-4.1c-3.5,3.1-6.4,6.4-8.6,9.9
					c-2.3,3.6-3.5,6.8-3.5,9.7c0,1.1,0.2,2.1,0.6,3.1c0.4,1,1.1,1.8,1.9,2.3c0.9,0.7,1.9,1.2,3.1,1.6c0.4,0.1,0.8,0.2,1.2,0.3
					c0.1,0,0.3,0.1,0.4,0.1c1,0.2,2,0.3,3.1,0.3c0.5,0,0.9,0,1.4,0l0,0c0.1,0,0.3,0,0.4,0c3.8-0.1,7.7-0.7,11.6-1.7
					c1.4-0.4,2.9-0.8,4.3-1.2c0,0,0,0,0.1,0c1-0.3,2.1-0.7,3.1-1c0,0,0,0,0,0v0c2-0.7,3.9-1.4,5.9-2.2c3.2-1.4,6.4-2.8,9.3-4.4v-3.6
					c-3.3,1.8-6.7,3.4-10.3,4.9C202.4,380.8,200.7,381.4,199.1,382z"/>
				<path class="st0" d="M279.6,384.9c2.2-0.9,4.5-1.9,7-3.2c4.5-2.3,9.6-5.3,15.3-9.1c0-0.5,0-1,0-1.6v-1.9
					c-2.5,1.6-4.8,3.1-6.9,4.4c-4.8,2.9-9,5.2-12.4,6.8c-1.7,0.8-3.3,1.5-4.7,2C278.5,383.2,279,384,279.6,384.9z"/>
				<path class="st0" d="M268.5,387.4c-0.7-1-1.4-2.1-2.1-3.1c-0.6-0.1-1-0.3-1.3-0.5l-0.8-0.7c-0.1-0.1-0.2-0.1-0.2-0.1l0-0.1
					c0,0,0,0,0-0.1c0-0.1,0-0.1-0.1-0.2l0,0c-0.3-0.5-0.4-1.2-0.4-1.9c0-0.2,0-0.4,0-0.6c0.1-0.7,0.2-1.6,0.5-2.5
					c0.7-2.2,1.8-4.6,3.3-7.2c0.5-0.8,1-1.6,1.5-2.4c0.3-0.4,0.6-0.9,0.8-1.3c0.2-0.4,0.5-0.8,0.7-1.1c0.7-1,1.3-2,2.1-3
					c0.5-0.7,0.9-1.3,1.4-1.9h0c1.4-1.9,2.8-3.7,4.2-5.3c0.4-0.4,0.4-0.7,0.3-0.9c-0.1-0.4-0.3-0.7-0.8-1c-0.3-0.3-0.6-0.4-1-0.4
					c-0.4,0-0.9,0.2-1.4,0.5c-0.9,1.2-2.2,2.4-3.7,3.7l-0.4,0.3l-0.3-0.4c-0.5-0.6-1.4-1.3-2.8-2.1c-1.4-0.8-3.4-1.4-5.9-1.7
					c-1.3-0.2-2.6-0.3-3.9-0.3c0,0,0,0-0.1,0c0.7,1,1.3,2,2,2.9l1.2,0c2.5,0.4,4.2,1,5.4,1.9c0.6,0.4,1,0.7,1.2,1h0
					c0.4,0.4,0.6,0.6,0.6,0.8c0,0,0,0,0,0c0,0.1,0,0.1,0,0.2v0.2l-0.2,0.2c-1,1-2.1,2-3.2,3c-2.5,2.2-5,4.4-7.7,6.6
					c-0.2,0.2-0.4,0.3-0.6,0.5c0,0,0,0,0,0c-3.7,3-7.3,5.6-10.7,8c-3.7,2.5-7.1,4.4-10.3,5.7c-2.3,0.9-4.2,1.4-5.8,1.4h0
					c-0.7,0-1.3-0.1-1.9-0.3c-0.6-0.2-1.1-0.5-1.5-0.9c-0.4-0.4-0.7-1.1-0.8-1.9c-0.3-2.4,0.6-5.4,2.6-8.9c2-3.4,5.4-6.8,10-9.9
					c3.6-2.4,7-4.3,10.3-5.5c-0.6-0.8-1.1-1.7-1.7-2.5c-3.4,1.4-7.1,3.3-11,5.8c-0.2,0.2-0.5,0.3-0.7,0.5c-0.2,0.1-0.4,0.2-0.6,0.4
					c-3.3,2.4-6.3,4.5-9.1,6.3c-0.2,0.1-0.5,0.3-0.7,0.4v3.6c0.1-0.1,0.2-0.1,0.3-0.2c-0.1,0.1-0.2,0.3-0.3,0.4c0,0,0,0,0,0.1v13.8
					c0.6,0.5,1.4,0.9,2.4,1.2c0.5,0.2,0.9,0.2,1.2,0.2h1.4c2.2,0,4.7-0.6,7.4-1.7c2.8-1.1,5.7-2.6,8.6-4.4c2.9-1.8,5.9-3.9,8.9-6.1
					c1.2-0.9,2.4-1.9,3.6-2.8l0,0c0.1,0,0.1-0.1,0.2-0.1c0,0,0.1-0.1,0.1-0.1c0,0,0,0,0,0c0,0,0,0,0,0l0,0c1.6-1.3,3.1-2.5,4.5-3.8
					l2.1-1.8l-1.3,2.5c-1.2,2.3-2.2,4.5-2.9,6.7c0,0,0,0,0,0c-0.1,0.2-0.1,0.4-0.2,0.6l0,0c-0.1,0.3-0.2,0.6-0.3,0.9
					c-0.3,1.2-0.5,2.3-0.5,3.2c0,0,0,0,0,0c0,0,0,0.1,0,0.1l0,0c0,0.5,0.1,0.9,0.2,1.4c0,0,0,0,0,0c0,0,0,0,0,0c0,0,0,0,0,0
					c0.1,0.2,0.1,0.4,0.2,0.6c0,0,0,0,0,0c0.1,0.2,0.2,0.4,0.3,0.6c0,0,0,0,0,0l0,0c0,0.1,0.1,0.2,0.1,0.2c0,0,0,0,0,0
					c0.1,0.2,0.3,0.4,0.5,0.7c0,0,0,0,0.1,0.1c0.5,0.5,1,1,1.8,1.5c1,0.7,2.7,1.1,4.9,1.1C268.3,387.4,268.4,387.4,268.5,387.4z"/>
				<path class="st0" d="M363.4,321.4c-2.3,2.7-5.4,5.7-9.3,9.2c-4.2,3.7-9.3,7.8-15,12.2c-5.7,4.4-11.7,8.8-17.8,13.1l-2.4,1.7
					l1.7-2.4c4-5.7,8-11.1,11.9-16.1c3.9-5,7.7-9.5,11.4-13.3c3.6-3.8,7.1-6.8,10.3-9.1c3.3-2.3,6.3-3.4,8.9-3.4
					c1.6,0,2.6,0.2,3.1,0.6l1.1-2.8c-1.1-0.4-2.5-0.6-4.2-0.6c-4.7,0-10.2,2.7-16.2,8c-6.1,5.4-12.6,12.7-19.5,21.8
					c-4.8,6.3-9.8,13.4-14.9,21v0.5v3.5v2.1c0.6-0.9,1.2-1.8,1.9-2.8l0-0.1l0.4-0.3c2.3-1.6,5.4-3.7,9.3-6.4
					c3.8-2.7,7.9-5.6,12.2-8.9c4.2-3.2,8.6-6.6,12.9-10.2c4.3-3.5,8.1-6.9,11.4-10.1L363.4,321.4z"/>
				<path class="st0" d="M330.8,376.5c-0.7,0-1.5,0-2.4-0.1c-0.9-0.1-1.8-0.4-2.6-0.9l-0.4-0.2l0.2-0.4c0.9-1.8,1.6-3.5,2-4.9
					c0.4-1.3,0.3-2.4-0.1-3.2c-0.6-1.6-1.9-2.3-3.8-2.3c-1.4,0-2.5,0.6-3.3,1.9c-0.9,1.3-1.4,2.8-1.4,4.5c0,2,0.7,3.7,2.2,5.2
					l0.3,0.3l-0.2,0.3c-1.4,2.6-3.3,5.5-5.5,8.8h0c-0.7,1-1.4,1.9-2.1,2.9c0,0,0,0.1-0.1,0.1c-0.3,0.4-0.7,0.9-1,1.4v0
					c-3,4.1-6.4,8.3-10.1,12.7c-0.2,0.2-0.3,0.4-0.5,0.6c-0.2,0.3-0.5,0.6-0.7,0.8c-1.1,1.3-2.3,2.6-3.5,3.9c-0.5,0.6-1,1.1-1.5,1.7
					c0.6,0.9,1.2,1.7,1.7,2.5c0.4-0.4,0.8-0.8,1.1-1.2c0.6-0.7,1.3-1.4,1.9-2.1l0,0c0,0,0,0,0,0c0.1-0.1,0.2-0.2,0.3-0.4v0
					c0.2-0.2,0.4-0.5,0.7-0.7c0,0,0,0,0,0c2.4-2.7,4.8-5.5,7-8.1c1.2-1.5,2.4-3,3.6-4.4v0c0.1-0.2,0.3-0.4,0.4-0.5
					c0.2-0.3,0.4-0.5,0.6-0.8v0c0.1-0.1,0.2-0.3,0.3-0.4c0,0,0,0,0,0v0c1.2-1.6,2.4-3.2,3.6-4.8c0-0.1,0.1-0.1,0.1-0.2
					c0.7-1,1.3-1.9,1.9-2.8c0,0,0,0,0,0h0c1.7-2.4,3.1-4.8,4.3-6.9l0.2-0.4l0.4,0.1c1.7,0.6,3.8,0.9,6.4,0.9c3.6,0,7.3-0.7,10.9-1.9
					l1.4-3.6c-0.4,0.2-0.9,0.4-1.3,0.5C338.2,375.7,334.5,376.5,330.8,376.5z M323.5,372.1l-0.7,1.2l-0.3-1.4
					c-0.2-1.1-0.2-2.1,0.2-3c0.5-1.3,0.6-1.5,0.8-1.6l0.4-0.3l0.3,0.4C324.9,368.3,324.7,369.8,323.5,372.1z"/>
				<path class="st0" d="M387.8,357.2c-0.6-0.5-1.6-0.8-2.8-1c-1.3-0.2-2.7-0.3-4.3-0.3c-4,0-8.1,1.1-12.3,3.1
					c-4.2,2.1-8,4.7-11.5,7.9l-3.7,9.3l0.1,0.1c0.2,0.2,0.3,0.3,0.3,0.5c0.5,0.9,1.4,1.8,2.8,2.7c1.4,0.9,3.7,1.4,7,1.4
					c3.1,0,6.2-0.7,9.4-2c3.2-1.3,6.1-3,8.7-4.9c2.6-2,4.8-4.1,6.4-6.3c1.6-2.2,2.4-4.2,2.4-6C390.5,359.8,389.6,358.3,387.8,357.2z
					 M384.9,366.6c-1.5,1.8-3.3,3.6-5.5,5.2c-2.2,1.6-4.8,3-7.5,4.2c-2.8,1.2-5.6,1.8-8.3,1.8c-0.9,0-2.1-0.1-3.5-0.3
					c-1.6-0.2-2.6-0.8-3.1-1.8c-0.5-1.1-0.4-2.4,0.3-3.8c0.6-1.3,1.4-2.5,2.4-3.4c0,0,0.2-0.2,0.2-0.3l0.3-0.3
					c3-2.7,6.1-4.8,9.6-6.6c3.6-1.8,7.2-2.7,10.9-2.7c1.5,0,2.6,0.1,3.4,0.3c0.8,0.2,1.4,0.4,1.8,0.6c0.9,0.5,1.3,1.2,1.3,2
					C387.2,363,386.5,364.7,384.9,366.6z"/>
			</g>
			<path d="M298.3,577.6c-111.7,0-202.5-90.9-202.5-202.5s90.9-202.5,202.5-202.5s202.5,90.9,202.5,202.5S409.9,577.6,298.3,577.6z
				 M298.3,175.7c-109.9,0-199.3,89.4-199.3,199.3c0,109.9,89.4,199.3,199.3,199.3c109.9,0,199.3-89.4,199.3-199.3
				C497.6,265.2,408.2,175.7,298.3,175.7z"/>
		</g>
	</g>
	<g>
		<path d="M195.6,464.4h2l2.1,6.3l2.2-6.3h1.4l2.2,6.3l2.1-6.3h2l-3.3,10.1h-1.4l-2.2-6.4l-2.2,6.4h-1.4L195.6,464.4z"/>
		<path d="M221.8,469.9h-5v4.5h-1.9v-10.1h1.9v3.8h5v-3.8h1.9v10.1h-1.9V469.9z"/>
		<path d="M232,466.1v2.1h3.1v1.7H232v2.8h4.2v1.7H230v-10.1h6v1.7H232z"/>
		<path d="M243.9,470v4.5H242v-10.1h3.7c1,0,1.7,0.3,2.2,0.7c0.5,0.5,0.9,1.3,0.9,2.1c0,0.8-0.3,1.5-0.9,2.1c-0.3,0.3-0.6,0.5-1,0.6
			l3.8,4.6h-2.4l-3.6-4.5H243.9z M245.5,468.2c0.6,0,0.8-0.1,1-0.3c0.2-0.2,0.3-0.5,0.3-0.8c0-0.3-0.1-0.6-0.3-0.8
			c-0.2-0.2-0.4-0.3-1-0.3h-1.6v2.2H245.5z"/>
		<path d="M257.6,466.1v2.1h3.1v1.7h-3.1v2.8h4.2v1.7h-6.2v-10.1h6v1.7H257.6z"/>
		<path d="M277.4,470.3v4.1h-1.9v-10.1h3.8c1.3,0,2.1,0.3,2.6,0.9c0.5,0.5,0.8,1.3,0.8,2.1c0,0.8-0.3,1.6-0.8,2.1
			c-0.5,0.6-1.3,0.9-2.6,0.9H277.4z M279.2,468.6c0.7,0,1-0.2,1.2-0.4c0.2-0.2,0.3-0.5,0.3-0.8s-0.1-0.6-0.3-0.9
			c-0.2-0.2-0.6-0.4-1.2-0.4h-1.8v2.5H279.2z"/>
		<path d="M290.1,466.1v2.1h3.1v1.7h-3.1v2.8h4.2v1.7h-6.2v-10.1h6v1.7H290.1z"/>
		<path d="M304.6,464.2c3.1,0,5.2,2.3,5.2,5.2c0,2.9-2.1,5.2-5.2,5.2c-3.1,0-5.2-2.3-5.2-5.2C299.3,466.5,301.5,464.2,304.6,464.2z
			 M304.6,472.9c1.9,0,3.3-1.6,3.3-3.5s-1.4-3.5-3.3-3.5c-1.9,0-3.3,1.6-3.3,3.5S302.7,472.9,304.6,472.9z"/>
		<path d="M317.4,470.3v4.1h-1.9v-10.1h3.8c1.3,0,2.1,0.3,2.6,0.9c0.5,0.5,0.8,1.3,0.8,2.1c0,0.8-0.3,1.6-0.8,2.1
			c-0.5,0.6-1.3,0.9-2.6,0.9H317.4z M319.1,468.6c0.7,0,1-0.2,1.2-0.4c0.2-0.2,0.3-0.5,0.3-0.8s-0.1-0.6-0.3-0.9
			c-0.2-0.2-0.6-0.4-1.2-0.4h-1.8v2.5H319.1z"/>
		<path d="M328.1,464.4h1.9v8.3h4.2v1.7h-6.2V464.4z"/>
		<path d="M341.7,466.1v2.1h3.1v1.7h-3.1v2.8h4.2v1.7h-6.2v-10.1h6v1.7H341.7z"/>
		<path d="M364.7,470.4l3.7-6h1.4v10.1h-1.9v-5.6l-2.4,4H364l-2.4-4v5.6h-1.9v-10.1h1.4L364.7,470.4z"/>
		<path d="M378,466.1v2.1h3.1v1.7H378v2.8h4.2v1.7H376v-10.1h6v1.7H378z"/>
		<path d="M389.9,466.1v2.1h3.1v1.7h-3.1v2.8h4.2v1.7H388v-10.1h6v1.7H389.9z"/>
		<path d="M406.4,464.4v1.7h-2.7v8.3h-1.9v-8.3h-2.7v-1.7H406.4z"/>
		<path d="M216.3,494.5l4.3-10.1h1.4l4.3,10.1h-2l-0.9-2.2h-4l-0.9,2.2H216.3z M220,490.6h2.6l-1.3-3L220,490.6z"/>
		<path d="M231.4,484.5h1.4l5.6,6.6v-6.6h1.9v10.1H239l-5.6-6.6v6.6h-1.9V484.5z"/>
		<path d="M249.8,484.5c1.6,0,2.6,0.3,3.5,0.9c1.2,0.9,2,2.4,2,4.1s-0.8,3.2-2,4.1c-0.8,0.6-1.9,0.9-3.5,0.9h-3.2v-10.1H249.8z
			 M252.6,487.3c-0.6-0.7-1.4-1.1-2.6-1.1h-1.4v6.6h1.4c1.2,0,2-0.4,2.6-1.1c0.5-0.6,0.7-1.4,0.7-2.2S253.1,487.9,252.6,487.3z"/>
		<path d="M269.1,491.8c0.6,0.6,1.5,1.1,2.4,1.1c0.9,0,1.5-0.5,1.5-1.3c0-1.3-1.9-1.5-3.2-2.2c-0.8-0.5-1.4-1.2-1.4-2.3
			c0-1.8,1.7-2.8,3.3-2.8c1,0,2,0.2,2.9,0.9l-1,1.4c-0.4-0.4-1.1-0.7-1.7-0.7c-0.7,0-1.6,0.3-1.6,1.1c0,1.6,4.6,1.1,4.6,4.5
			c0,1.8-1.6,3-3.4,3c-1.4,0-2.6-0.6-3.6-1.5L269.1,491.8z"/>
		<path d="M282.5,490.4v4.1h-1.9v-10.1h3.8c1.3,0,2.1,0.3,2.6,0.9c0.5,0.5,0.8,1.3,0.8,2.1s-0.3,1.6-0.8,2.1
			c-0.5,0.6-1.3,0.9-2.6,0.9H282.5z M284.2,488.7c0.7,0,1-0.2,1.2-0.4c0.2-0.2,0.3-0.5,0.3-0.8s-0.1-0.6-0.3-0.9
			c-0.2-0.2-0.6-0.4-1.2-0.4h-1.8v2.5H284.2z"/>
		<path d="M295.1,486.2v2.1h3.1v1.7h-3.1v2.8h4.2v1.7h-6.2v-10.1h6v1.7H295.1z"/>
		<path d="M305.1,484.5h1.4l5.6,6.6v-6.6h1.9v10.1h-1.4l-5.6-6.6v6.6h-1.9V484.5z"/>
		<path d="M323.5,484.5c1.6,0,2.6,0.3,3.5,0.9c1.2,0.9,2,2.4,2,4.1s-0.8,3.2-2,4.1c-0.8,0.6-1.9,0.9-3.5,0.9h-3.2v-10.1H323.5z
			 M326.3,487.3c-0.6-0.7-1.4-1.1-2.6-1.1h-1.4v6.6h1.4c1.2,0,2-0.4,2.6-1.1c0.5-0.6,0.7-1.4,0.7-2.2S326.8,487.9,326.3,487.3z"/>
		<path d="M349,484.5v1.7h-2.7v8.3h-1.9v-8.3h-2.7v-1.7H349z"/>
		<path d="M354.5,484.5h1.9v10.1h-1.9V484.5z"/>
		<path d="M367.8,490.5l3.7-6h1.4v10.1h-1.9v-5.6l-2.4,4h-1.4l-2.4-4v5.6h-1.9v-10.1h1.4L367.8,490.5z"/>
		<path d="M381.1,486.2v2.1h3.1v1.7h-3.1v2.8h4.2v1.7h-6.2v-10.1h6v1.7H381.1z"/>
	</g>
</g>
</svg>
